<svg class="svg-clip" width="100" height="160" viewBox="0 0 100 160" xmlns="http://www.w3.org/2000/svg"><path fill="#FFF" d="M0 130h100v30H0z"/><path fill="#352B37" d="M18 148.782v-6.67h1.719v5.171h2.68v1.5zm9.937-3.33c0-.498.09-.963.27-1.394.181-.431.43-.797.745-1.096.316-.3.694-.535 1.135-.706.441-.17.914-.256 1.419-.256.504 0 .976.085 1.416.256.44.171.816.406 1.13.706.314.3.562.665.742 1.096.181.431.271.896.271 1.394 0 .498-.09.963-.27 1.394a3.2 3.2 0 0 1-.743 1.096c-.314.3-.69.535-1.13.706-.44.17-.912.256-1.416.256a3.89 3.89 0 0 1-1.419-.256 3.427 3.427 0 0 1-1.135-.706 3.184 3.184 0 0 1-.744-1.096 3.571 3.571 0 0 1-.271-1.394zm1.752 0c0 .55.168 1.01.503 1.377.336.368.773.552 1.314.552.54 0 .977-.184 1.31-.552.335-.368.501-.827.501-1.377 0-.553-.166-1.013-.5-1.38-.334-.365-.77-.549-1.311-.549-.54 0-.978.184-1.314.55-.335.366-.503.826-.503 1.38zm11.246 3.33v-6.67h1.767l2.7 3.672v-3.672h1.734v6.67h-1.66l-2.823-3.862v3.862zm12.397 0v-6.67h4.888v1.5h-3.17v1.04h3.101v1.498h-3.1v1.133h3.169v1.5zm10.888-2.7v-3.97h1.749v3.911c0 .407.122.735.366.984.244.25.592.374 1.045.374.446 0 .79-.125 1.035-.374.244-.249.366-.577.366-.984v-3.91h1.739v3.96c0 .42-.065.8-.193 1.144a2.474 2.474 0 0 1-.572.894 2.52 2.52 0 0 1-.984.586 4.286 4.286 0 0 1-1.391.207 4.26 4.26 0 0 1-1.394-.21 2.587 2.587 0 0 1-.991-.588 2.479 2.479 0 0 1-.579-.889 3.153 3.153 0 0 1-.195-1.135zm11.802 2.7l2.32-3.418-2.173-3.252H78.2l1.299 2.09 1.29-2.09h2.04l-2.168 3.242 2.32 3.428h-2.032l-1.45-2.241-1.45 2.241zM0 0h100v130H0z"/></svg>